<svg xmlns="http://www.w3.org/2000/svg" viewBox="246 176.246 427.356 52.998">
  <defs>
    <style>
      .cls-1, .cls-3 {
        fill: #f4eee5;
      }

      .cls-2 {
        fill: none;
      }

      .cls-2, .cls-3, .cls-4 {
        stroke: #3a3a3c;
        stroke-width: 1.19px;
      }

      .cls-4 {
        fill: #6cd1ea;
      }

      .cls-5 {
        fill: #2a8298;
      }

      .cls-6 {
        fill: #666;
      }

      .cls-7 {
        fill: #fff;
        stroke: #fff;
        stroke-width: 1px;
        font-size: 28px;
        font-family: Pompiere-Regular, Pompiere ;
        letter-spacing: 0.022em;
      }
    </style>
  </defs>
  <g id="group-241" transform="translate(134 -526.121)">
    <path id="path" class="cls-1" d="M11.96,8.581,35.706.59V9.957H11.979Z" transform="translate(184.27 702.373)"/>
    <line id="line" class="cls-2" y1="9.367" transform="translate(219.977 702.963)"/>
    <path id="path-2" data-name="path" class="cls-1" d="M173.451,8.581,152.03.59V9.957h21.4Z" transform="translate(282.33 702.373)"/>
    <line id="line-2" data-name="line" class="cls-2" y1="9.367" transform="translate(434.36 702.963)"/>
    <path id="path-3" data-name="path" class="cls-3" d="M173.941,43.032h19.313l-10.4-21.2L193.254.59H152.52l21.421,7.991Z" transform="translate(282.673 702.373)"/>
    <path id="path-4" data-name="path" class="cls-3" d="M22,43.031H.59l11.534-21.2L.59.59H45.745L22,8.581Z" transform="translate(174.212 702.373)"/>
    <path id="path-5" data-name="path" class="cls-4" d="M142.135,48H272.326V5.56H11.96V48Z" transform="translate(184.27 706.769)"/>
    <path id="path-6" data-name="path" class="cls-5" d="M314.382,827.792l35.808-1.018-35.808-1.018a1.282,1.282,0,0,0-1.432.98,1.239,1.239,0,0,0,1.338,1.074Z" transform="translate(-117.379 -105.512)"/>
    <path id="path-7" data-name="path" class="cls-5" d="M314.391,830.005l34.432-1.018-34.432-.98a1.282,1.282,0,0,0-1.451.98,1.239,1.239,0,0,0,1.338,1.074Z" transform="translate(-117.388 -103.523)"/>
    <path id="path-8" data-name="path" class="cls-5" d="M314.391,832.243l33.075-1.018-33.075-1.018a1.281,1.281,0,0,0-1.451.98,1.232,1.232,0,0,0,1.319,1.074Z" transform="translate(-117.388 -101.576)"/>
    <path id="path-9" data-name="path" class="cls-5" d="M314.392,834.474l31.718-1.018-31.718-1.037c-.773,0-1.413.415-1.451.98s.565,1.037,1.319,1.074Z" transform="translate(-117.389 -99.605)"/>
    <path id="path-10" data-name="path" class="cls-5" d="M314.391,836.712l30.342-1.036-30.342-1.018a1.282,1.282,0,0,0-1.451.98c0,.565.547,1.037,1.319,1.074Z" transform="translate(-117.388 -97.64)"/>
    <path id="path-11" data-name="path" class="cls-5" d="M314.391,838.972l28.985-1.037-28.985-1.018a1.281,1.281,0,0,0-1.451.98,1.22,1.22,0,0,0,1.319,1.074Z" transform="translate(-117.388 -95.641)"/>
    <path id="path-12" data-name="path" class="cls-5" d="M314.391,841.161l27.628-1.018-27.628-1.037a1.3,1.3,0,0,0-1.451.98,1.22,1.22,0,0,0,1.319,1.074Z" transform="translate(-117.388 -93.702)"/>
    <path id="path-13" data-name="path" class="cls-5" d="M479.621,825.749l-32.3,1.018,32.3,1.018a1.048,1.048,0,1,0,.085-2.054Z" transform="translate(-24.335 -105.523)"/>
    <path id="path-14" data-name="path" class="cls-5" d="M479.11,828l-31.06,1.037,31.06,1.018a1.2,1.2,0,0,0,1.309-.98A1.136,1.136,0,0,0,479.212,828Z" transform="translate(-23.824 -103.515)"/>
    <path id="path-15" data-name="path" class="cls-5" d="M478.606,830.209l-29.836,1.018,29.836,1.018a1.049,1.049,0,1,0,.119-2.054Z" transform="translate(-23.32 -101.577)"/>
    <path id="path-16" data-name="path" class="cls-5" d="M478.1,832.42l-28.612,1.037,28.612,1.018a1.167,1.167,0,0,0,1.309-.98,1.153,1.153,0,0,0-1.19-1.074Z" transform="translate(-22.816 -99.605)"/>
    <path id="path-17" data-name="path" class="cls-5" d="M477.591,834.65l-27.371,1.018,27.371,1.036a1.183,1.183,0,0,0,1.309-.98,1.142,1.142,0,0,0-1.19-1.074Z" transform="translate(-22.305 -97.632)"/>
    <path id="path-18" data-name="path" class="cls-5" d="M477.087,836.87l-26.147,1.018,26.147,1.036a1.183,1.183,0,0,0,1.309-.98,1.142,1.142,0,0,0-1.19-1.074Z" transform="translate(-21.801 -95.668)"/>
    <path id="path-19" data-name="path" class="cls-5" d="M476.583,839.09l-24.923,1.037,24.923,1.018a1.184,1.184,0,0,0,1.309-.98,1.142,1.142,0,0,0-1.19-1.074Z" transform="translate(-21.297 -93.704)"/>
    <g id="group-111" transform="translate(112 709.644)">
      <path id="path-20" data-name="path" class="cls-6" d="M8997.372-234.3c-5.243-2-10.289-.142-14.52,3.137-4.426,3.431-12.758,12.493-18.543,6.328-2.947-3.137-1.175-8.311,1.512-10.968a6.664,6.664,0,0,1,5.949-2.07c1.338.305,2.97,1.394,3.142,2.908l-.282,2.364q-1.674,2.178-3.263.185c-.3-.643-1.4-.185-1.152.49a2.807,2.807,0,0,0,1.595,1.629,2.8,2.8,0,0,0,2.277-.094,4.185,4.185,0,0,0,2.174-4.923c-1.532-6.426-9.6-3.878-12.441-.153-3.035,3.976-3.437,10.663,1.718,13.07,6.309,2.963,12.214-2.712,16.65-6.437,3.774-3.17,8.168-5.947,13.3-4.694,5.5,1.34,8.06,5.827,9.146,11.012.087.4.642.272.674-.087C9005.747-227.693,9001.994-232.54,8997.372-234.3Z" transform="translate(-8939.446 239.252)"/>
      <path id="path-21" data-name="path" class="cls-6" d="M35.784,4.947c-5.243-2-10.289-.142-14.52,3.137C16.839,11.515,8.507,20.578,2.722,14.413-.226,11.276,1.547,6.1,4.233,3.444a6.664,6.664,0,0,1,5.949-2.07c1.338.305,2.97,1.394,3.142,2.908l-.282,2.364q-1.674,2.178-3.263.185c-.3-.643-1.4-.185-1.152.49A2.8,2.8,0,0,0,12.5,8.857a4.185,4.185,0,0,0,2.174-4.923C13.141-2.492,5.07.057,2.231,3.782-.8,7.758-1.206,14.445,3.949,16.853c6.309,2.963,12.214-2.712,16.65-6.437,3.774-3.17,8.168-5.947,13.3-4.694,5.5,1.34,8.06,5.827,9.146,11.012.087.4.642.272.674-.087C44.159,11.559,40.406,6.712,35.784,4.947Z" transform="translate(406.839 22.981) rotate(171)"/>
      <path id="path-22" data-name="path" class="cls-6" d="M8990.689-230.782c-3.948.937-7.243,5.609-4.351,9.367a4.943,4.943,0,0,0,4.854,1.769,4.953,4.953,0,0,0,3.782-3.522c.369-1.394,0-3.387-1.457-3.987a2.013,2.013,0,0,0-1.886.17,2.015,2.015,0,0,0-.909,1.66.631.631,0,0,0,.548.624.632.632,0,0,0,.691-.46q2.619.915,1.282,2.418a2.792,2.792,0,0,1-1.945,1.754,3.475,3.475,0,0,1-3.567-1.089c-1.938-2.048-.937-5.141,1.228-6.535,3.414-2.276,10.278-1.035,10.5,3.845a.485.485,0,0,0,.485.484.483.483,0,0,0,.482-.484C9000.608-229.66,8994.714-231.729,8990.689-230.782Z" transform="translate(-8937.376 239.988)"/>
      <path id="path-23" data-name="path" class="cls-6" d="M5.45.224C1.5,1.161-1.793,5.833,1.1,9.591A4.946,4.946,0,0,0,9.735,7.838c.369-1.394,0-3.387-1.457-3.987a2.011,2.011,0,0,0-2.795,1.83.631.631,0,0,0,1.239.163Q9.342,6.759,8,8.262A2.792,2.792,0,0,1,6.06,10.016,3.475,3.475,0,0,1,2.492,8.927C.554,6.879,1.555,3.786,3.72,2.391,7.134.115,14,1.357,14.215,6.236a.484.484,0,1,0,.968,0C15.369,1.346,9.475-.724,5.45.224Z" transform="translate(380.027 18.133) rotate(171)"/>
      <ellipse id="ellipse" class="cls-6" cx="3.285" cy="3.289" rx="3.285" ry="3.289" transform="translate(10.017 6.745)"/>
      <ellipse id="ellipse-2" data-name="ellipse" class="cls-6" cx="3.285" cy="3.289" rx="3.285" ry="3.289" transform="translate(417.759 14.422) rotate(171)"/>
      <ellipse id="ellipse-3" data-name="ellipse" class="cls-6" cx="1.392" cy="1.394" rx="1.392" ry="1.394" transform="translate(0 8.64)"/>
      <ellipse id="ellipse-4" data-name="ellipse" class="cls-6" cx="1.392" cy="1.394" rx="1.392" ry="1.394" transform="translate(427.356 10.984) rotate(171)"/>
    </g>
    <text id="TRENDING_NOW" data-name="TRENDING NOW" class="cls-7" transform="translate(259.098 743.534)"><tspan x="0" y="0">WHAT’S NEW</tspan></text>
  </g>
</svg>
